<svg xmlns="http://www.w3.org/2000/svg" width="62.395" height="62.455" viewBox="0 0 62.395 62.455">
  <path id="Path_207" data-name="Path 207" d="M2546,1343.35l-10.312,10.312a5.1,5.1,0,0,1-7.209,0l-5.519-5.519a5.1,5.1,0,0,1,0-7.209l10.312-10.312a2.093,2.093,0,0,0-.735-3.428,16.757,16.757,0,0,0-17.97,3.749l-6.806,6.806c-6.784,6.784-4.714,14.468.525,22.1l-14.208,14.208a6.167,6.167,0,0,0-.307,8.531,6,6,0,0,0,8.614.132l14.386-14.386c7.634,5.24,15.319,7.309,22.1.525l6.806-6.806a16.757,16.757,0,0,0,3.748-17.97A2.093,2.093,0,0,0,2546,1343.35Z" transform="translate(-2490.197 -1324.025)" fill="none" stroke="#fff" stroke-miterlimit="10" stroke-width="4"/>
</svg>
