<svg xmlns="http://www.w3.org/2000/svg" width="29.251" height="24.76" viewBox="0 0 57.251 47.76"><defs><style>.a{fill:#1d6870;}</style></defs><g transform="translate(1349.715 2740.806) rotate(180)"><g transform="translate(276 87)"><path class="a" d="M-14015.153-7519.737s-5.977.407-6.25-4.213,1.9-10.054,6.25-9.919,6.387.407,5.979-2.717.271-5.844-5.979-5.3-14.4,3.668-15.082,15.625,0,27.31,0,27.31.271,4.756,7.609,4.756h13.451s5.164-.407,4.893-7.609,0-13.722,0-13.722a5.146,5.146,0,0,0-4.893-4.212A56.8,56.8,0,0,0-14015.153-7519.737Z" transform="translate(15047 10148)"/><path class="a" d="M-14015.153-7519.737s-5.977.407-6.25-4.213,1.9-10.054,6.25-9.919,6.387.407,5.979-2.717.271-5.844-5.979-5.3-14.4,3.668-15.082,15.625,0,27.31,0,27.31.271,4.756,7.609,4.756h13.451s5.164-.407,4.893-7.609,0-13.722,0-13.722a5.146,5.146,0,0,0-4.893-4.212A56.8,56.8,0,0,0-14015.153-7519.737Z" transform="translate(15077.986 10148)"/></g></g></svg>