<svg xmlns="http://www.w3.org/2000/svg" width="88.684" height="73.984" viewBox="0 0 88.684 73.984"><defs><style>.a{fill:#1d6870;}</style></defs><g transform="translate(-1016.464 -2606.046)"><path class="a" d="M-14006.706-7507.539s-9.261.632-9.682-6.524,2.947-15.575,9.682-15.365,9.893.631,9.261-4.209.421-9.051-9.261-8.208-22.31,5.683-23.362,24.2,0,42.3,0,42.3.421,7.367,11.786,7.367h20.837s8-.632,7.577-11.787,0-21.258,0-21.258-1.053-6.292-7.577-6.524A88.548,88.548,0,0,0-14006.706-7507.539Z" transform="translate(15047 10148)"/><path class="a" d="M-14006.706-7507.539s-9.261.632-9.682-6.524,2.947-15.575,9.682-15.365,9.893.631,9.261-4.209.421-9.051-9.261-8.208-22.31,5.683-23.362,24.2,0,42.3,0,42.3.421,7.367,11.786,7.367h20.837s8-.632,7.577-11.787,0-21.258,0-21.258-1.053-6.292-7.577-6.524A88.548,88.548,0,0,0-14006.706-7507.539Z" transform="translate(15095 10148)"/></g></svg>