<svg xmlns="http://www.w3.org/2000/svg" width="96.094" height="96.1" viewBox="0 0 96.094 96.1">
  <g id="Group_262" data-name="Group 262" transform="translate(-27.349 67.032)">
    <path id="Path_152" data-name="Path 152" d="M123.443-18.967a48.04,48.04,0,0,1-48.13,48.036A48.012,48.012,0,0,1,27.349-18.993,47.9,47.9,0,0,1,75.405-67.032,47.937,47.937,0,0,1,123.443-18.967Zm-.971.018A47.139,47.139,0,0,0,75.326-66.085a47.148,47.148,0,0,0-47.017,47.2A47.1,47.1,0,0,0,75.522,28.1,47.1,47.1,0,0,0,122.472-18.949Z" transform="translate(0 0)" fill="#505050"/>
    <path id="Path_153" data-name="Path 153" d="M192.267,61.992a35.973,35.973,0,1,1-35.955-35.959A35.955,35.955,0,0,1,192.267,61.992Zm-20.744,3.994c1.126-.184,2.269-.3,3.373-.566a7.308,7.308,0,0,0,5.784-6.039,13.17,13.17,0,0,0-.112-5.911,6.952,6.952,0,0,0-4.128-4.933,11.978,11.978,0,0,0-8.044-.692c-3.093.789-5.271,2.514-6.04,5.738a12.827,12.827,0,0,0-.154,5.6,7.532,7.532,0,0,0,4.689,5.786A13.88,13.88,0,0,0,171.523,65.985ZM148.9,64.321c.5.229.936.449,1.388.635a10.136,10.136,0,0,0,8.006.218,5.232,5.232,0,0,0,2.844-6.994,6.052,6.052,0,0,0-3.8-3.315c-1.976-.625-3.975-1.178-5.96-1.774a3.318,3.318,0,0,1-.883-.386.5.5,0,0,1,.035-.895,1.456,1.456,0,0,1,.659-.246,6.906,6.906,0,0,1,5.825,2.1c.123.138.293.327.445.331,1.156.028,2.312.015,3.539.015,0-1.937.011-3.771-.023-5.6,0-.136-.323-.371-.505-.381-.776-.042-1.557,0-2.334-.023-.606-.02-1.172-.046-.983.921-.42-.2-.727-.346-1.038-.487a10.354,10.354,0,0,0-7.212-.592,5.158,5.158,0,0,0-4.126,4.535,5.248,5.248,0,0,0,3.057,5.452,7.756,7.756,0,0,0,1.433.592c1.71.537,3.431,1.04,5.144,1.572a7.12,7.12,0,0,1,1.321.518c.432.238.412.584-.007.848a2.127,2.127,0,0,1-.538.217c-1.731.508-5.248-.224-6.491-2.271a.8.8,0,0,0-.55-.345c-.929-.034-1.86-.032-2.788.007a.594.594,0,0,0-.41.411c-.028,1.881-.025,3.763-.007,5.645,0,.144.173.408.27.411,1.2.028,2.4.019,3.627.019C148.865,65.038,148.882,64.722,148.9,64.321ZM135.068,52.066v9.053c-.668,0-1.272.017-1.875-.006-.426-.016-.631.1-.618.576.029,1.08.02,2.162,0,3.243-.006.382.111.538.515.536q5.156-.017,10.311,0c.364,0,.5-.135.5-.494-.012-1.124-.017-2.249,0-3.373.007-.413-.178-.516-.549-.505-.643.019-1.287.005-1.967.005V52.062c.683,0,1.326-.014,1.969.005.377.012.554-.1.548-.511q-.024-1.686,0-3.373c0-.372-.148-.486-.5-.485q-5.156.012-10.311,0c-.413,0-.514.169-.508.543.016,1.1.018,2.205,0,3.308-.007.4.145.535.532.523C133.754,52.052,134.4,52.066,135.068,52.066Zm3.922,15.359a20.2,20.2,0,0,0,19.364,9.338C163.948,76.177,171.9,71.226,173,67.4a.906.906,0,0,0-1.142.42A17.868,17.868,0,0,1,168,71.893l-1.887-1.256,2.157-3.17c-.646-.227-.962-.083-1.254.386-.51.819-1.1,1.586-1.647,2.354l-3.2-1.336.465-1.436c-1.209-.379-.886.831-1.318,1.141l-4.716-.689c-.195-.209-.392-.534-.491-.506a3.43,3.43,0,0,0-.826.524l-4.548.67c-.441-.374-.143-1.512-1.328-1.138l.447,1.44-3.189,1.329c-.549-.778-1.146-1.546-1.652-2.368-.3-.48-.615-.589-1.244-.374l2.165,3.186-1.913,1.238a18.386,18.386,0,0,1-3.84-4.069A.911.911,0,0,0,138.99,67.425Zm4.979-25.972,1.9,1.254-2.1,3.106c.611.2.934.126,1.217-.338a23,23,0,0,1,1.425-2.006.6.6,0,0,1,.511-.2c.975.39,1.933.823,2.9,1.245l-.4,1.329c1.154.371.858-.77,1.224-1.031,1.492.205,2.9.4,4.31.592.285.039.6-.052.721.378.021.078.646.085.65.062.108-.584.576-.394.918-.45q1.853-.3,3.707-.59c.142-.022.287-.023.386-.031.4.427.212,1.463,1.3,1.047l-.426-1.317,3.228-1.352c.532.755,1.112,1.5,1.606,2.308.3.486.623.56,1.23.349l-2.106-3.1c.475-.314.981-.608,1.439-.965.337-.262.582-.285.877.04,1.13,1.246,2.3,2.46,3.393,3.734a.942.942,0,0,0,1.25.282c-4.442-6.342-10.391-9.669-18.1-9.327-6.9.306-12.191,3.609-16.107,9.346a.921.921,0,0,0,1.257-.341A18.265,18.265,0,0,1,143.969,41.453ZM133.015,83.118a1.7,1.7,0,0,0,1.068,1.806,2.3,2.3,0,0,0,3.033-.956,5.847,5.847,0,0,0,.362-4.949,2.336,2.336,0,0,0-2.878-1.389,2.455,2.455,0,0,0-1.76,2.687,2.121,2.121,0,0,0,2.081,2.145,8.408,8.408,0,0,0,1.853-.344,9.312,9.312,0,0,1-.626,1.579,1.167,1.167,0,0,1-2.06-.076C133.863,82.977,133.5,83,133.015,83.118Zm5.357-1.78a21.74,21.74,0,0,0,.665,2.51,2.019,2.019,0,0,0,2,1.287,2.1,2.1,0,0,0,2.068-1.3,6.057,6.057,0,0,0,.006-4.964,2.069,2.069,0,0,0-1.995-1.3,2.019,2.019,0,0,0-2.071,1.266A20.758,20.758,0,0,0,138.372,81.338Zm25.828-.007a21.613,21.613,0,0,0,.545,2.316,2.109,2.109,0,0,0,2.132,1.489,2.132,2.132,0,0,0,2.1-1.448,6.2,6.2,0,0,0-.021-4.733,2.1,2.1,0,0,0-2.072-1.385,2.051,2.051,0,0,0-2.084,1.354A18.964,18.964,0,0,0,164.2,81.331Zm-20.08.056a21.444,21.444,0,0,0,.622,2.4,2.049,2.049,0,0,0,2.03,1.345,2.089,2.089,0,0,0,2.065-1.3,6.01,6.01,0,0,0,.006-4.962,2.262,2.262,0,0,0-4.156.135A20.312,20.312,0,0,0,144.121,81.387Zm31.894.251c.683.172.683.172,1.187-.209a1.674,1.674,0,0,1,2.141.105,1.819,1.819,0,0,1,.047,2.166,1.515,1.515,0,0,1-2.434-.158c-.274-.686-.678-.545-1.16-.454a2.2,2.2,0,0,0,2.641,2.044,2.452,2.452,0,0,0,2.325-3.016,2.872,2.872,0,0,0-.923-1.482,2.53,2.53,0,0,0-2.757-.185,6.348,6.348,0,0,0,.155-1.041c-.015-.642.334-.728.864-.7.747.033,1.5.008,2.257.008v-1c-1.18,0-2.3-.014-3.423.016a.575.575,0,0,0-.422.353C176.325,79.255,176.179,80.432,176.015,81.638ZM163.5,84.886c.093-.931.093-.933-.713-.935q-1.538,0-3.077,0l-.123-.227c.43-.356.838-.743,1.294-1.06.654-.454,1.4-.788,2-1.3a2.175,2.175,0,0,0,.3-2.84,2.6,2.6,0,0,0-3.156-.739,2.165,2.165,0,0,0-1.266,2.423c.589.167.969.094,1.037-.659a1.084,1.084,0,0,1,1.013-1.019,1.326,1.326,0,0,1,1.561.745,1.407,1.407,0,0,1-.61,1.745c-.595.391-1.23.72-1.825,1.111a3.007,3.007,0,0,0-1.421,2.753Zm8.934-5.089v5.045c1.068.181,1.077.174,1.077-.787,0-1.964.009-3.929-.015-5.893,0-.2-.2-.392-.3-.588-.211.128-.536.209-.611.393a1.34,1.34,0,0,1-1.283.918c-.679.023-.637.385-.48.912Zm-20.109,0c0,1.516,0,2.9,0,4.274,0,.933.041.963,1.05.76V77.415c-.366.2-.749.273-.823.467a1.549,1.549,0,0,1-1.485,1.042c-.157.015-.36.3-.4.483-.02.1.259.348.428.374A8.475,8.475,0,0,0,152.322,79.8Zm5.156-.185-.19-.183c-.346.086-.777.081-1.007.293a.667.667,0,0,0,.944.925A2.538,2.538,0,0,0,157.478,79.615Zm-.069,4.684c.127-.479-.124-.592-.585-.605-.5-.014-.609.2-.61.65s.141.6.592.594S157.521,84.84,157.409,84.3Z" transform="translate(-80.903 -80.984)" fill="#505050"/>
    <path id="Path_154" data-name="Path 154" d="M318.635,597.664l2.021-4.812,1.884.335-1.1,6.495-1.164-.16.868-5.257-.146-.041-2.081,5.027c-1.284-.124-1.275-.124-1.334-1.341-.068-1.419-.154-2.837-.232-4.255l-.17-.014-.888,5.173-1.173-.19,1.107-6.5a11.118,11.118,0,0,1,1.555.254.791.791,0,0,1,.381.595c.121,1.549.2,3.1.292,4.652Z" transform="translate(-250.414 -573.592)" fill="#505050"/>
    <path id="Path_155" data-name="Path 155" d="M528.688,552.508l1.032-.584,3.235,5.74c-1.019.755-1.018.754-2,.168a43.806,43.806,0,0,0-3.846-2.112l2.253,4.029-1.029.586-3.253-5.763c.13-.089.224-.143.3-.211a1.27,1.27,0,0,1,1.729-.016c1.182.787,2.427,1.48,3.647,2.213l.136-.1Z" transform="translate(-433.117 -538.608)" fill="#505050"/>
    <path id="Path_156" data-name="Path 156" d="M243.681,570.425c2,.124,3.974,1.528,3.17,4.172a4.168,4.168,0,0,1-1.685,2.454,3.044,3.044,0,0,1-3.517-.244,2.546,2.546,0,0,1-1.184-2.854,7.793,7.793,0,0,1,.994-2.348A2.528,2.528,0,0,1,243.681,570.425Zm-2,3.933a1.769,1.769,0,0,0,1.053,1.792,1.519,1.519,0,0,0,1.942-.385,6.684,6.684,0,0,0,1.015-2.115,1.567,1.567,0,0,0-.949-1.862,1.664,1.664,0,0,0-2.067.386A3.62,3.62,0,0,0,241.682,574.358Z" transform="translate(-185.382 -554.707)" fill="#505050"/>
    <path id="Path_157" data-name="Path 157" d="M583.645,44.336l4.579-4.842c.849.842,1.7,1.629,2.481,2.487a2.015,2.015,0,0,1,.391,1.949,4.238,4.238,0,0,1-3.627,3.045,2.724,2.724,0,0,1-1.484-.5C585.168,45.85,584.453,45.09,583.645,44.336Zm4.774-3.175-3.11,3.288c.765.576,1.233,1.609,2.361,1.26a3.132,3.132,0,0,0,2.237-2.318C590.152,42.284,589.015,41.9,588.419,41.162Z" transform="translate(-484.082 -92.698)" fill="#505050"/>
    <path id="Path_158" data-name="Path 158" d="M289.761-26.886c1.472.341.992,1.917,1.815,2.688-.053.042-.094.1-.147.113-1.259.318-1.175.7-1.663-.878-.344-1.112-.569-1.233-1.7-.917-.348.1-.692.209-1.079.327l.69,2.5-1.2.361-1.817-6.418c1.316-.325,2.575-.7,3.861-.928a1.482,1.482,0,0,1,1.564.948,1.756,1.756,0,0,1-.065,1.848C289.959-27.138,289.879-27.043,289.761-26.886Zm-1.783-2.022c-.4.114-.963.267-1.518.438-.085.026-.216.154-.2.205.126.521.267,1.039.435,1.549.02.06.235.109.337.08a13.6,13.6,0,0,0,1.6-.5.752.752,0,0,0,.427-1.019A.938.938,0,0,0,287.978-28.908Z" transform="translate(-223.915 -32.175)" fill="#505050"/>
    <path id="Path_159" data-name="Path 159" d="M537.236.182,541.363,2.7l-.567.917L537.772,1.8l-.8,1.271,2.782,1.71-.559.9L536.41,4.012l-.952,1.545,3.167,1.952-.564.946-4.275-2.6Z" transform="translate(-440.695 -58.489)" fill="#505050"/>
    <path id="Path_160" data-name="Path 160" d="M222.434-7.13l.721,1.331,2.864-1.509.514.922-2.873,1.555.854,1.6L227.79-4.96l.527.964-4.406,2.344L220.8-7.5l4.255-2.266.5.953Z" transform="translate(-168.341 -49.83)" fill="#505050"/>
    <path id="Path_161" data-name="Path 161" d="M476.425,592.677a4.906,4.906,0,0,0-.666.2.7.7,0,0,1-1.08-.395.726.726,0,0,0-1.13-.424,2.537,2.537,0,0,1-.5.144c-1.144.315-1.132.317-1.3,1.465a.692.692,0,0,1-.351.442,5.622,5.622,0,0,1-.952.259c.026-.387.052-.719.072-1.051.1-1.725.2-3.451.308-5.176A1.29,1.29,0,0,1,472.269,587a.517.517,0,0,1,.248.181,4.093,4.093,0,0,1,.269.365Zm-4.265-3.969-.185-.007v2.709l1.662-.481Z" transform="translate(-385.585 -569.117)" fill="#505050"/>
    <path id="Path_162" data-name="Path 162" d="M172.6,33.667c-.494.434-.815.912-1.655.571-.92-.374-1.985.882-1.685,1.915a3.583,3.583,0,0,0,1.842,2.245,1.408,1.408,0,0,0,1.535-.105c.449-.318.834-.777.641-1.311-.3-.839.24-1.1.785-1.491a2.532,2.532,0,0,1,.21,2.54,2.839,2.839,0,0,1-2.351,1.725c-2.113.228-4.37-2.325-3.908-4.4a2.986,2.986,0,0,1,2.149-2.233A2.339,2.339,0,0,1,172.6,33.667Z" transform="translate(-122.357 -87.033)" fill="#505050"/>
    <path id="Path_163" data-name="Path 163" d="M181.16,536.446c-.539-.409-1.092-.6-.923-1.465.173-.88-.944-1.688-1.838-1.468a3.62,3.62,0,0,0-2.255,2.626,1.517,1.517,0,0,0,.662,1.457,1.28,1.28,0,0,0,1.514.093c.7-.419.884.344,1.393.542a2.646,2.646,0,0,1-2.625.7,2.885,2.885,0,0,1-2.13-2.152,4.048,4.048,0,0,1,3.423-4.486,2.99,2.99,0,0,1,2.708,1.487A2.5,2.5,0,0,1,181.16,536.446Z" transform="translate(-128.389 -521.524)" fill="#505050"/>
    <path id="Path_164" data-name="Path 164" d="M400.069,599.347c1.08-.07,2.047-.166,3.017-.189,1.343-.031,2,.64,2.062,2.026a1.787,1.787,0,0,1-1.857,2.142c-.515.047-1.03.091-1.575.138,0,.411-.009.793,0,1.174s.042.772.067,1.225h-1.261C400.377,603.748,400.226,601.59,400.069,599.347Zm1.513,3.09c.831-.216,1.756.194,2.175-.706a1.32,1.32,0,0,0-.158-1.183c-.6-.646-1.381-.264-2.173-.2Z" transform="translate(-324.337 -579.709)" fill="#505050"/>
    <path id="Path_165" data-name="Path 165" d="M451.107-28.125l-1.24-.329,1.525-6.423,4.559,1.081-.252,1-3.2-.729c-.071.1-.127.149-.141.206-.4,1.75-.577,1.275,1.02,1.72.476.132.961.232,1.518.366l-.235,1c-.765-.176-1.508-.3-2.216-.524-.586-.189-.756.021-.851.552C451.475-29.524,451.284-28.86,451.107-28.125Z" transform="translate(-367.67 -27.981)" fill="#505050"/>
    <path id="Path_166" data-name="Path 166" d="M581.183,512.353c.28-.259.517-.447.714-.669a.654.654,0,0,1,.862-.156c.8.35,1.622.662,2.587,1.051-.257-.827-.468-1.495-.672-2.165-.343-1.127-.323-1.174.786-1.847.277,1.077.6,2.127.805,3.2a3.9,3.9,0,0,0,1.211,2.218c.267.249.5.539.782.856l-1.021.946C585.98,513.331,583.39,513.31,581.183,512.353Z" transform="translate(-481.94 -500.879)" fill="#505050"/>
    <path id="Path_167" data-name="Path 167" d="M358.413-39.926a13.061,13.061,0,0,1-1.357.108c-.524-.012-.662.187-.613.7.136,1.442.223,2.889.326,4.334.011.15,0,.3,0,.542l-1.236.086c-.082-1.074-.165-2.12-.242-3.166-.046-.625-.1-1.251-.122-1.877-.012-.378-.184-.488-.53-.456-.488.046-.977.076-1.522.116l-.049-1.075,5.253-.361C358.355-40.6,358.38-40.307,358.413-39.926Z" transform="translate(-283.439 -22.675)" fill="#505050"/>
    <path id="Path_168" data-name="Path 168" d="M504.232-10.324l-1.2-.485,2.5-6.143,1.2.484Z" transform="translate(-413.93 -43.579)" fill="#505050"/>
    <path id="Path_169" data-name="Path 169" d="M417.07-39.974l1.278.088c-.175,2.192-.346,4.335-.52,6.522h-1.279Z" transform="translate(-338.677 -23.546)" fill="#505050"/>
    <path id="Path_170" data-name="Path 170" d="M497.864,230.355c-.083,1.025-.149,1.909-.23,2.791a2.269,2.269,0,0,1-.133.564c-.371,1.016-1.432,1.5-3,1.388a2.124,2.124,0,0,1-2.242-1.753,14.981,14.981,0,0,1-.043-5.925,1.686,1.686,0,0,1,1.122-1.393,5.463,5.463,0,0,1,1.509-.332,2.358,2.358,0,0,1,2.8,2.281C497.775,228.807,497.8,229.652,497.864,230.355Z" transform="translate(-404.282 -254.722)" fill="#505050"/>
    <path id="Path_171" data-name="Path 171" d="M398.779,359.665v-4.793l4.548.64a8.675,8.675,0,0,1-2.984,3.994C399.963,359.753,399.337,359.62,398.779,359.665Z" transform="translate(-323.214 -367.135)" fill="#505050"/>
    <path id="Path_172" data-name="Path 172" d="M361.283,354.826v4.611a1.777,1.777,0,0,1-2.217-.451,12.442,12.442,0,0,1-2.328-3.5Z" transform="translate(-286.63 -367.095)" fill="#505050"/>
    <path id="Path_173" data-name="Path 173" d="M370.994,399.034a19.353,19.353,0,0,1-8.546,0A7.8,7.8,0,0,1,370.994,399.034Z" transform="translate(-291.599 -404.454)" fill="#505050"/>
    <path id="Path_174" data-name="Path 174" d="M418.348,366.77l2.976-4.242,2.739,1.1a12.665,12.665,0,0,1-4.986,3.243C418.841,366.952,418.523,366.8,418.348,366.77Z" transform="translate(-340.243 -373.798)" fill="#505050"/>
    <path id="Path_175" data-name="Path 175" d="M334.1,366.82a4.176,4.176,0,0,1-1.112-.1,12.751,12.751,0,0,1-4.656-3.116l2.732-1.112Z" transform="translate(-261.908 -373.765)" fill="#505050"/>
    <path id="Path_176" data-name="Path 176" d="M436.63,375.15l1.654,1.057a20.612,20.612,0,0,1-4.991,2.605,1.279,1.279,0,0,1-1.576-.232Z" transform="translate(-351.875 -384.781)" fill="#505050"/>
    <path id="Path_177" data-name="Path 177" d="M314.976,378.579c-.413.515-.987.453-1.653.2a20.135,20.135,0,0,1-4.907-2.574l1.643-1.062Z" transform="translate(-244.581 -384.777)" fill="#505050"/>
    <path id="Path_178" data-name="Path 178" d="M403.456,136.6l-4.6.651v-4.624a1.967,1.967,0,0,1,2.471.585A13.594,13.594,0,0,1,403.456,136.6Z" transform="translate(-323.284 -173.564)" fill="#505050"/>
    <path id="Path_179" data-name="Path 179" d="M360.91,137.369l-4.592-.661a9.119,9.119,0,0,1,2.9-3.983c.4-.269,1.084-.121,1.689-.168Z" transform="translate(-286.265 -173.68)" fill="#505050"/>
    <path id="Path_180" data-name="Path 180" d="M361.277,113.017a19.8,19.8,0,0,1,8.77-.029C368.15,114.647,364.022,114.985,361.277,113.017Z" transform="translate(-290.58 -156.236)" fill="#505050"/>
    <path id="Path_181" data-name="Path 181" d="M333.129,127.833l-2.905,4.25-2.814-1.135a12.668,12.668,0,0,1,1.354-1.2c1.023-.67,2.088-1.277,3.14-1.9A1.04,1.04,0,0,1,333.129,127.833Z" transform="translate(-261.109 -169.402)" fill="#505050"/>
    <path id="Path_182" data-name="Path 182" d="M424.9,131.019l-2.779,1.134-2.9-4.257a1.052,1.052,0,0,1,1.134-.039A13.711,13.711,0,0,1,424.9,131.019Z" transform="translate(-341.001 -169.466)" fill="#505050"/>
    <path id="Path_183" data-name="Path 183" d="M438.483,122.127c-.6.4-1.112.986-1.646,1.008-.451.018-.927-.627-1.395-.975-.571-.425-1.127-.876-1.724-1.262-.576-.372-1.2-.675-1.82-1.022a1.191,1.191,0,0,1,1.5-.394A20.742,20.742,0,0,1,438.483,122.127Z" transform="translate(-352.035 -162.203)" fill="#505050"/>
    <path id="Path_184" data-name="Path 184" d="M314.4,119.6c-1.239.854-2.411,1.646-3.563,2.466-.331.236-.584.581-.915.818a.69.69,0,0,1-.6.078c-.508-.268-.981-.6-1.518-.948a17.532,17.532,0,0,1,5.654-2.8C313.726,119.136,314.106,119.467,314.4,119.6Z" transform="translate(-244.051 -162.057)" fill="#505050"/>
    <path id="Path_185" data-name="Path 185" d="M227.7,431.822c.008,1.008-.457,1.582-1.3,1.6-.926.019-1.4-.478-1.412-1.464-.007-1.025.485-1.6,1.363-1.6S227.691,430.868,227.7,431.822Z" transform="translate(-171.985 -432.825)" fill="#505050"/>
    <path id="Path_186" data-name="Path 186" d="M271.734,433.247c-.142.677-.24,1.339-.428,1.974a1.082,1.082,0,0,1-1.068.8,1.121,1.121,0,0,1-1.146-.792,5.926,5.926,0,0,1,.006-4.124,1.1,1.1,0,0,1,1.163-.757,1.059,1.059,0,0,1,1.055.808C271.5,431.837,271.6,432.544,271.734,433.247Z" transform="translate(-210.042 -432.814)" fill="#505050"/>
    <path id="Path_187" data-name="Path 187" d="M470.587,433.174c-.126.664-.21,1.329-.387,1.967a1.123,1.123,0,0,1-1.148.879,1.155,1.155,0,0,1-1.144-.891,6.26,6.26,0,0,1-.005-3.888,1.142,1.142,0,0,1,1.133-.9,1.13,1.13,0,0,1,1.182.913C470.389,431.876,470.466,432.521,470.587,433.174Z" transform="translate(-383.098 -432.811)" fill="#505050"/>
    <path id="Path_188" data-name="Path 188" d="M312.484,433.179c.119-.652.19-1.3.365-1.917a1.2,1.2,0,0,1,2.325-.026,6.039,6.039,0,0,1,0,3.885,1.171,1.171,0,0,1-1.142.9,1.157,1.157,0,0,1-1.179-.933C312.679,434.469,312.6,433.824,312.484,433.179Z" transform="translate(-248.121 -432.812)" fill="#505050"/>
  </g>
</svg>
