<svg xmlns="http://www.w3.org/2000/svg" width="52" height="52" viewBox="0 0 52 52"><defs><style>.a{fill:#54a9be;}.b{fill:#fff;}</style></defs><g transform="translate(-1536 -50)"><circle class="a" cx="26" cy="26" r="26" transform="translate(1536 50)"/><path class="b" d="M2249,419.849a5.336,5.336,0,0,0-4.078-1.712c-3.071.1-5.923,1.98-5.594,6.8,0,0-4.625,1.409-11.824-5.437,0,0-2.316,3.776,1.779,7.333a3.821,3.821,0,0,1-2.685-.537s-.822,3.188,4.447,5.6c0,0-1.779.5-2.584,0,0,0,.47,3.39,5.2,4.2,0,0-2.434,2.416-8.189,2.349,0,0,11.97,6.125,20.269-1.746a16.9,16.9,0,0,0,5.1-13.122,5.285,5.285,0,0,0,2.786-2.433,10.892,10.892,0,0,1-3.121.52s2.181-1.361,2.349-2.971A6.651,6.651,0,0,1,2249,419.849Z" transform="translate(-677.555 -353.923)"/></g></svg>