<svg xmlns="http://www.w3.org/2000/svg" width="52" height="52" viewBox="0 0 52 52"><defs><style>.a{fill:#54a9be;}.b{fill:#fff;}</style></defs><g transform="translate(-1599 -50)"><circle class="a" cx="26" cy="26" r="26" transform="translate(1599 50)"/><g transform="translate(-271.066 -499.372)"><g transform="translate(137 -137.899)"><g transform="translate(1746.489 699.271)"><rect class="b" width="5.8" height="16.207" transform="translate(1.201 9.227)"/><path class="b" d="M1779.464,729.672h4.476v2.251s.689-2.271,4.826-2.271c3.416,0,5.859,1.331,5.859,4.985v11.242h-4.78s.026-9.454.053-9.745a2.68,2.68,0,0,0-2.7-2.675,2.948,2.948,0,0,0-3.2,3.072v9.348h-4.529Z" transform="translate(-1769.471 -720.445)"/><circle class="b" cx="2.9" cy="2.9" r="2.9" transform="translate(0 4.101) rotate(-45)"/></g></g></g></g></svg>