<svg xmlns="http://www.w3.org/2000/svg" width="388.77" height="101.667" viewBox="0 0 388.77 101.667"><defs><style>.a{fill:#7f898d;}.b{fill:#494f50;}.c{fill:#54a9be;}.d{fill:#5aadbf;}.e{fill:#488c9d;}.f,.g{fill:#fff;}.f{stroke:#fff;stroke-miterlimit:10;stroke-width:0.25px;}</style></defs><g transform="translate(-2.455 -0.795)"><path class="a" d="M93.954,49.4V28.753L48.2.8,33.036,10.066l7.31,4.468L48.2,9.73l12.731,7.783L48.2,25.293,28.16,13.046,2.455,28.753V45.605l7.622-4.66V33.032L26.6,22.934V36.807L2.455,51.564V74.5l19.06,11.651V77.218L10.077,70.227V53.8L26.6,63.338V89.26l21.6,13.2L93.954,74.5V55.267l-7.626,4.4V70.227l-16.52,10.1V63.338ZM69.809,22.934l16.52,10.1V46.9l-16.52-10.1Zm-35.583,2.75L48.2,34.229l13.979-8.544v12.71L48.2,46.466,34.226,38.394ZM19.2,50.265l9.878-6.038,15.313,8.839V69.833L34.226,76.045V58.936Zm29,43.26L34.226,84.984,48.2,76.44l13.979,8.544ZM62.183,58.936V76.045L52.017,69.833V53.066l15.309-8.839L77.2,50.265Z" transform="translate(0.001 0)"/><path class="b" d="M13.717,59.517l7.133,4.359L66.6,35.917V16.682l-7.625,4.4V31.641Z" transform="translate(27.354 38.586)"/><path class="b" d="M21.517,31.376v8.936L2.455,28.663V19.669Z" transform="translate(0 45.841)"/><path class="b" d="M26.542.8l-15.168,9.27,7.311,4.468,7.857-4.8,38.125,23.3,7.625-4.276Z" transform="translate(21.662 0.001)"/><path class="c" d="M19.875,23.9,27.5,28.3l15.014-8.669L34.9,15.223Z" transform="translate(42.309 35.041)"/><path class="d" d="M27.757,23.9v17.11l-7.625,4.276V28.3L5.118,19.629l7.617-4.407Z" transform="translate(6.468 35.041)"/><path class="e" d="M27.5,39.139V22.155l-7.625-4.4v17.11Z" transform="translate(42.309 41.185)"/><path class="c" d="M12.735,15.223,5.118,19.629,20.132,28.3V45.282l7.625-4.276V23.9Z" transform="translate(6.468 35.041)"/><path class="b" d="M73.926,23.651a19.438,19.438,0,0,1-1.4,7.457,17.608,17.608,0,0,1-9.738,9.765,19.924,19.924,0,0,1-14.668,0,17.581,17.581,0,0,1-9.738-9.765,19.374,19.374,0,0,1-1.4-7.457,19.379,19.379,0,0,1,1.4-7.461,17.589,17.589,0,0,1,9.738-9.762,19.879,19.879,0,0,1,14.668,0,17.616,17.616,0,0,1,9.738,9.762A19.443,19.443,0,0,1,73.926,23.651Zm-3.806.024a17.436,17.436,0,0,0-1-5.9,14.758,14.758,0,0,0-2.9-4.924A13.9,13.9,0,0,0,61.583,9.48a15.689,15.689,0,0,0-12.265,0,13.931,13.931,0,0,0-4.632,3.374,14.75,14.75,0,0,0-2.9,4.924,17.87,17.87,0,0,0,0,11.795,14.441,14.441,0,0,0,2.9,4.9,14.16,14.16,0,0,0,4.632,3.35,15.689,15.689,0,0,0,12.265,0,14.124,14.124,0,0,0,4.632-3.35,14.449,14.449,0,0,0,2.9-4.9A17.422,17.422,0,0,0,70.12,23.675Z" transform="translate(83.848 10.276)"/><path class="b" d="M74.517,11.637a8.6,8.6,0,0,0-2.956-2.578,9.009,9.009,0,0,0-4.355-.977,9.3,9.3,0,0,0-2.654.4A7.76,7.76,0,0,0,62.1,9.706a6.316,6.316,0,0,0-1.776,2.078,6.117,6.117,0,0,0-.675,2.956,5.468,5.468,0,0,0,.648,2.8,6.139,6.139,0,0,0,1.721,1.876A9.961,9.961,0,0,0,64.467,20.7c.915.336,1.869.669,2.87,1q1.846.6,3.717,1.3a13.328,13.328,0,0,1,3.37,1.828,8.787,8.787,0,0,1,2.448,2.853,9.055,9.055,0,0,1,.946,4.382,9.4,9.4,0,0,1-3.638,7.759,10.989,10.989,0,0,1-3.7,1.852,14.949,14.949,0,0,1-4.18.6,15.861,15.861,0,0,1-3.2-.326,14.5,14.5,0,0,1-3.055-.974,12.5,12.5,0,0,1-2.7-1.653,11.905,11.905,0,0,1-2.2-2.3l3.106-2.3a9.545,9.545,0,0,0,3.226,3.178,9.149,9.149,0,0,0,4.883,1.275,9.421,9.421,0,0,0,2.753-.425,7.732,7.732,0,0,0,2.527-1.3,7.244,7.244,0,0,0,1.855-2.15,5.937,5.937,0,0,0,.723-2.98,5.966,5.966,0,0,0-.723-3.079,6.489,6.489,0,0,0-1.93-2.054A11.675,11.675,0,0,0,68.808,25.8q-1.553-.55-3.254-1.1-1.749-.545-3.453-1.251a11.582,11.582,0,0,1-3.055-1.828,8.545,8.545,0,0,1-2.177-2.777,9.028,9.028,0,0,1-.826-4.056,8.966,8.966,0,0,1,1.025-4.4A9.266,9.266,0,0,1,59.749,7.33,11.173,11.173,0,0,1,63.4,5.578a14.9,14.9,0,0,1,3.957-.552A13.6,13.6,0,0,1,73.516,6.3a10.553,10.553,0,0,1,3.854,3.028Z" transform="translate(127.961 10.276)"/><path class="b" d="M88.589,11.637a8.621,8.621,0,0,0-2.952-2.578,9.033,9.033,0,0,0-4.358-.977,9.282,9.282,0,0,0-2.65.4,7.742,7.742,0,0,0-2.455,1.224A6.317,6.317,0,0,0,74.4,11.784a6.117,6.117,0,0,0-.675,2.956,5.468,5.468,0,0,0,.648,2.8,6.138,6.138,0,0,0,1.721,1.876A9.961,9.961,0,0,0,78.54,20.7q1.373.5,2.87,1,1.846.6,3.72,1.3a13.386,13.386,0,0,1,3.37,1.828,8.818,8.818,0,0,1,2.445,2.853,9.053,9.053,0,0,1,.95,4.382,9.763,9.763,0,0,1-1.011,4.581,9.637,9.637,0,0,1-2.63,3.178,10.941,10.941,0,0,1-3.693,1.852,14.967,14.967,0,0,1-4.18.6,15.9,15.9,0,0,1-3.206-.326,14.535,14.535,0,0,1-3.052-.974,12.436,12.436,0,0,1-2.705-1.653,11.888,11.888,0,0,1-2.2-2.3l3.1-2.3a9.557,9.557,0,0,0,3.23,3.178,9.136,9.136,0,0,0,4.879,1.275,9.4,9.4,0,0,0,2.753-.425,7.7,7.7,0,0,0,2.527-1.3,7.147,7.147,0,0,0,1.855-2.15,5.938,5.938,0,0,0,.727-2.98,5.966,5.966,0,0,0-.727-3.079,6.478,6.478,0,0,0-1.927-2.054A11.807,11.807,0,0,0,82.884,25.8q-1.553-.55-3.254-1.1-1.754-.545-3.456-1.251a11.507,11.507,0,0,1-3.052-1.828,8.554,8.554,0,0,1-2.181-2.777,9.028,9.028,0,0,1-.826-4.056,8.929,8.929,0,0,1,1.029-4.4A9.257,9.257,0,0,1,73.822,7.33a11.158,11.158,0,0,1,3.655-1.752,14.855,14.855,0,0,1,3.953-.552A13.6,13.6,0,0,1,87.588,6.3a10.524,10.524,0,0,1,3.854,3.028Z" transform="translate(162.148 10.276)"/><path class="b" d="M87.538,40.732h-3.6V5.289h3.6Z" transform="translate(197.892 10.915)"/><path class="b" d="M93.571,5.289h10.012a19.423,19.423,0,0,1,4.907.576,10.824,10.824,0,0,1,3.778,1.752,7.9,7.9,0,0,1,2.428,2.952,9.569,9.569,0,0,1,.854,4.183,9.362,9.362,0,0,1-.878,4.18,8.1,8.1,0,0,1-2.452,2.952,11.165,11.165,0,0,1-3.806,1.78,19.046,19.046,0,0,1-4.931.6H97.175V40.732h-3.6Zm3.6,15.92h6.107q4.253,0,6.46-1.653a5.635,5.635,0,0,0,2.2-4.8,5.4,5.4,0,0,0-2.277-4.831,11.39,11.39,0,0,0-6.384-1.529H97.175Z" transform="translate(221.297 10.915)"/><path class="b" d="M109.73,40.732h-3.953L121.093,5.289H124.6l15.217,35.443h-4l-3.905-9.309H113.584Zm5.208-12.614h15.618L122.746,9.294Z" transform="translate(250.942 10.915)"/><rect class="c" width="270.458" height="16.911" transform="translate(120.766 68.61)"/><g transform="translate(232.332 72.757)"><path class="f" d="M75.225,29.159V29.9H69.5V21.8H75.05v.737H70.356v2.88h4.186v.73H70.356v3.007Z" transform="translate(-69.499 -21.732)"/><path class="f" d="M78.523,21.8v8.1h-.706l-5.2-6.569V29.9h-.857V21.8h.706L77.68,28.37V21.8Z" transform="translate(-64.02 -21.732)"/><path class="f" d="M80.224,29.159V29.9H74.5V21.8h5.551v.737h-4.7v2.88h4.19v.73h-4.19v3.007Z" transform="translate(-57.358 -21.732)"/><path class="f" d="M82.285,29.9l-1.852-2.6a5.689,5.689,0,0,1-.648.034H77.611V29.9h-.857V21.8h3.031a3.676,3.676,0,0,1,2.431.737,2.529,2.529,0,0,1,.878,2.037,2.511,2.511,0,0,1-1.852,2.544L83.221,29.9Zm-.682-3.83a2.091,2.091,0,0,0,0-3,2.833,2.833,0,0,0-1.841-.528h-2.15V26.6h2.15A2.794,2.794,0,0,0,81.6,26.069Z" transform="translate(-51.879 -21.732)"/><path class="f" d="M85.4,25.9h.823V28.99a3.976,3.976,0,0,1-1.344.761,4.947,4.947,0,0,1-1.629.267,4.5,4.5,0,0,1-2.187-.531,3.942,3.942,0,0,1-1.526-1.474,4.293,4.293,0,0,1,0-4.224,3.942,3.942,0,0,1,1.526-1.474,4.521,4.521,0,0,1,2.2-.531,4.774,4.774,0,0,1,1.7.295,3.4,3.4,0,0,1,1.306.874l-.531.545a3.324,3.324,0,0,0-2.441-.95,3.651,3.651,0,0,0-1.776.432,3.221,3.221,0,0,0-1.241,1.2,3.332,3.332,0,0,0-.453,1.718,3.281,3.281,0,0,0,.453,1.711,3.236,3.236,0,0,0,1.238,1.2A3.847,3.847,0,0,0,85.4,28.63Z" transform="translate(-46.462 -21.783)"/><path class="f" d="M85.5,27.1v2.8h-.843V27.1L81.419,21.8h.915l2.774,4.543L87.886,21.8h.857Z" transform="translate(-40.549 -21.732)"/></g><g transform="translate(336.233 72.757)"><path class="f" d="M106.224,25.9h.819V28.99a3.96,3.96,0,0,1-1.341.761,4.982,4.982,0,0,1-1.632.267,4.477,4.477,0,0,1-2.184-.531,3.951,3.951,0,0,1-1.529-1.474,4.293,4.293,0,0,1,0-4.224,3.951,3.951,0,0,1,1.529-1.474,4.5,4.5,0,0,1,2.194-.531,4.761,4.761,0,0,1,1.7.295,3.441,3.441,0,0,1,1.31.874l-.535.545a3.316,3.316,0,0,0-2.438-.95,3.641,3.641,0,0,0-1.776.432,3.23,3.23,0,0,0-1.245,1.2,3.329,3.329,0,0,0-.449,1.718,3.279,3.279,0,0,0,.449,1.711,3.236,3.236,0,0,0,1.238,1.2,3.853,3.853,0,0,0,3.888-.185Z" transform="translate(-99.802 -21.783)"/><path class="f" d="M108.615,27.736H104.1l-.97,2.164h-.891l3.7-8.1h.843l3.7,8.1h-.9Zm-.312-.693-1.944-4.351-1.944,4.351Z" transform="translate(-93.878 -21.732)"/><path class="f" d="M106.09,29.731a3.223,3.223,0,0,1-1.279-.765l.336-.658a3.249,3.249,0,0,0,1.169.71,4.26,4.26,0,0,0,1.5.271,2.741,2.741,0,0,0,1.632-.4A1.225,1.225,0,0,0,110,27.855a1.042,1.042,0,0,0-.295-.775,2.062,2.062,0,0,0-.723-.446,11.956,11.956,0,0,0-1.193-.339,12.454,12.454,0,0,1-1.457-.446,2.394,2.394,0,0,1-.929-.655A1.721,1.721,0,0,1,105.01,24a2.025,2.025,0,0,1,.322-1.118,2.254,2.254,0,0,1,.994-.8,4.113,4.113,0,0,1,1.666-.3,4.9,4.9,0,0,1,1.358.192,3.875,3.875,0,0,1,1.152.525l-.288.682a3.954,3.954,0,0,0-1.087-.5,4.028,4.028,0,0,0-1.135-.168,2.605,2.605,0,0,0-1.6.411,1.263,1.263,0,0,0-.538,1.056,1.058,1.058,0,0,0,.295.782,1.91,1.91,0,0,0,.741.449c.295.106.7.219,1.2.343a12.745,12.745,0,0,1,1.44.432,2.411,2.411,0,0,1,.933.648,1.727,1.727,0,0,1,.381,1.176,1.992,1.992,0,0,1-.329,1.114,2.214,2.214,0,0,1-1.011.8,4.261,4.261,0,0,1-1.68.295A5.222,5.222,0,0,1,106.09,29.731Z" transform="translate(-87.637 -21.783)"/></g><g transform="translate(154.342 72.757)"><path class="f" d="M48.827,29.481A3.92,3.92,0,0,1,47.3,28.006a4.314,4.314,0,0,1,0-4.21,3.944,3.944,0,0,1,1.526-1.474,4.692,4.692,0,0,1,4.351-.007A3.971,3.971,0,0,1,54.7,23.789a4.293,4.293,0,0,1,0,4.224,3.971,3.971,0,0,1-1.519,1.474,4.692,4.692,0,0,1-4.351-.007Zm3.916-.658a3.1,3.1,0,0,0,1.214-1.2,3.557,3.557,0,0,0,0-3.436,3.149,3.149,0,0,0-1.214-1.2,3.707,3.707,0,0,0-3.473,0,3.208,3.208,0,0,0-1.227,1.2,3.533,3.533,0,0,0,0,3.436,3.161,3.161,0,0,0,1.227,1.2,3.707,3.707,0,0,0,3.473,0Z" transform="translate(-46.753 -21.783)"/><path class="f" d="M49.792,21.8h.857v8.1h-.857Z" transform="translate(-39.372 -21.732)"/><path class="f" d="M50.811,21.8h.854v7.355H56.2V29.9h-5.39Z" transform="translate(-36.897 -21.732)"/></g><rect class="g" width="0.583" height="7.876" transform="translate(207.014 80.81) rotate(180)"/><rect class="g" width="0.583" height="7.876" transform="translate(305.053 80.81) rotate(180)"/></g></svg>