<svg xmlns="http://www.w3.org/2000/svg" width="40.837" height="76.058" viewBox="0 0 40.837 76.058">
  <g id="Group_172" data-name="Group 172" transform="translate(-746.236 -154.428)">
    <path id="Path_97" data-name="Path 97" d="M748,181.646a28.087,28.087,0,0,0,.846,7.2,100.175,100.175,0,0,0,5.383,14.453,3.874,3.874,0,0,0-.716,2.2,3.931,3.931,0,0,0,1.009,2.651,3.9,3.9,0,0,0-1.009,2.563,3.948,3.948,0,0,0,1.254,2.909,3.891,3.891,0,0,0-.908,2.46,4.3,4.3,0,0,0,4.4,4.162l15.9.208h.064a4.616,4.616,0,0,0,3.218-1.278,3.893,3.893,0,0,0-.045-5.686,3.887,3.887,0,0,0-.1-5.109,3.869,3.869,0,0,0,.01-5.2,99.526,99.526,0,0,0,5.327-14.338,28.008,28.008,0,0,0,.846-7.195,17.739,17.739,0,0,0-35.479,0Zm27.564,35.608a1.84,1.84,0,0,1-1.369.513l-15.9-.21a1.63,1.63,0,0,1-1.75-1.449,1.48,1.48,0,0,1,1.2-1.328,1.343,1.343,0,0,0-.123-2.623,1.571,1.571,0,0,1-1.424-1.418,1.47,1.47,0,0,1,1.126-1.3,1.343,1.343,0,0,0,.012-2.561,1.5,1.5,0,0,1-1.138-1.348,1.164,1.164,0,0,1,.2-.634h18.827a1.266,1.266,0,0,1,.393.9,1.461,1.461,0,0,1-1.122,1.3,1.342,1.342,0,0,0-.012,2.561A1.489,1.489,0,0,1,775.621,211a1.471,1.471,0,0,1-1.2,1.326,1.344,1.344,0,0,0,.124,2.623,1.573,1.573,0,0,1,1.422,1.418A1.255,1.255,0,0,1,775.568,217.255Zm-9.823-50.662A15.072,15.072,0,0,1,780.8,181.646a25.455,25.455,0,0,1-.772,6.558,98.382,98.382,0,0,1-5.229,14H756.689a98.633,98.633,0,0,1-5.229-14,25.521,25.521,0,0,1-.77-6.565A15.071,15.071,0,0,1,765.744,166.592Z" transform="translate(1.871 10.034)" fill="#54a9be"/>
    <path id="Path_98" data-name="Path 98" d="M749.031,157.8a1.566,1.566,0,0,0-2.46,1.939l8.008,10.165a1.57,1.57,0,0,0,1.229.6h.056a1.569,1.569,0,0,0,1.5-1.381,1.549,1.549,0,0,0-.325-1.153Zm6.915,11.312a.233.233,0,0,1-.132.047.209.209,0,0,1-.183-.084l-8-10.167a.221.221,0,0,1,.037-.313.218.218,0,0,1,.136-.047h.027a.25.25,0,0,1,.15.084l8.006,10.165a.228.228,0,0,1,.047.165A.237.237,0,0,1,755.946,169.116Z" transform="translate(0 2.943)" fill="#54a9be"/>
    <path id="Path_99" data-name="Path 99" d="M762.043,170.067h0a1.539,1.539,0,0,0,.863.261h.055a1.572,1.572,0,0,0,1.252-.7l6.6-9.932a1.565,1.565,0,1,0-2.606-1.733l-6.6,9.932a1.563,1.563,0,0,0,.434,2.17Zm.683-1.427,6.6-9.934a.233.233,0,0,1,.14-.095.245.245,0,0,1,.169.033.23.23,0,0,1,.095.144.213.213,0,0,1-.033.167l-6.6,9.932a.221.221,0,0,1-.307.062.232.232,0,0,1-.1-.142A.235.235,0,0,1,762.726,168.641Z" transform="translate(15.993 3.003)" fill="#54a9be"/>
    <path id="Path_100" data-name="Path 100" d="M757.235,170.75l.064,0,.054,0a1.571,1.571,0,0,0,1.511-1.5l.558-13.193a1.566,1.566,0,1,0-3.129-.13l-.556,13.191a1.562,1.562,0,0,0,1.5,1.63Zm-.159-1.575.556-13.191a.226.226,0,0,1,.072-.156.232.232,0,0,1,.161-.058.225.225,0,0,1,.214.233l-.556,13.191a.226.226,0,0,1-.223.216h-.01a.23.23,0,0,1-.157-.074A.227.227,0,0,1,757.077,169.175Z" transform="translate(10.055)" fill="#54a9be"/>
    <path id="Path_101" data-name="Path 101" d="M752.71,176.139h0a1.483,1.483,0,0,0,1.569-1.371,6.222,6.222,0,0,1,.177-1.128,5.2,5.2,0,0,1,4.13-3.757,7.1,7.1,0,0,1,1.313-.2,1.473,1.473,0,0,0-.066-2.946c-2.76.06-8.09,1.77-8.5,7.831A1.474,1.474,0,0,0,752.71,176.139Z" transform="translate(5.396 13.034)" fill="#54a9be"/>
  </g>
</svg>
