<svg xmlns="http://www.w3.org/2000/svg" width="53.715" height="65.263" viewBox="0 0 53.715 65.263">
  <g id="Group_297" data-name="Group 297" transform="translate(-1333.142 -1445.05)">
    <g id="Group_174" data-name="Group 174" transform="translate(525.453 901.402)">
      <path id="Path_103" data-name="Path 103" d="M846.945,608.575h0a1.21,1.21,0,0,0,.835-.332l13.041-12.3a1.208,1.208,0,0,0,.371-.876,1.419,1.419,0,0,0,.208-.734V548.8a5.152,5.152,0,0,0-5.148-5.148H812.837a5.154,5.154,0,0,0-5.148,5.148v54.966a5.154,5.154,0,0,0,5.148,5.148h33.195A1.408,1.408,0,0,0,846.945,608.575Zm1.222-4.037v-4.724a3.539,3.539,0,0,1,3.532-3.536h5.226Zm-3.563,1.519H812.837a2.293,2.293,0,0,1-2.29-2.294V548.8a2.293,2.293,0,0,1,2.29-2.294h43.419a2.293,2.293,0,0,1,2.29,2.294V592.91h-6.671a7.278,7.278,0,0,0-7.271,7.269Z" transform="translate(0 0)" fill="#54a9be"/>
      <path id="Path_104" data-name="Path 104" d="M813.821,555.653h31.468a1.428,1.428,0,0,0,1.43-1.428v-2.56a1.428,1.428,0,0,0-1.43-1.43H813.821a1.429,1.429,0,0,0-1.428,1.43v2.56A1.429,1.429,0,0,0,813.821,555.653Zm.286-3.7H845v1.989h-30.9Z" transform="translate(4.991 6.988)" fill="#54a9be"/>
      <path id="Path_105" data-name="Path 105" d="M813.821,560h31.468a1.429,1.429,0,0,0,1.43-1.428v-2.562a1.429,1.429,0,0,0-1.43-1.428H813.821a1.43,1.43,0,0,0-1.428,1.428v2.562A1.43,1.43,0,0,0,813.821,560Zm.286-3.7H845v1.989h-30.9Z" transform="translate(4.991 11.599)" fill="#54a9be"/>
      <path id="Path_106" data-name="Path 106" d="M846.719,562.916v-2.56a1.428,1.428,0,0,0-1.43-1.428H813.821a1.429,1.429,0,0,0-1.428,1.428v2.56a1.431,1.431,0,0,0,1.428,1.43h31.468A1.43,1.43,0,0,0,846.719,562.916ZM845,562.631h-30.9v-1.989H845Z" transform="translate(4.991 16.211)" fill="#54a9be"/>
    </g>
  </g>
</svg>
