<svg xmlns="http://www.w3.org/2000/svg" width="85.822" height="70.639" viewBox="0 0 85.822 70.639">
  <g id="Group_171" data-name="Group 171" transform="translate(-414.232 -478.171)">
    <path id="Path_96" data-name="Path 96" d="M478.854,478.171l-7.309,7.307c-.369-.052-.735-.085-1.1-.112-2.618-1.061-7.275-1.807-12.741,2.4l-.128.112-1.794,1.8c-6.751-4.58-12.112-1.758-13.62-.762l-6.727-6.727-21.2,21.2,8.039,8.037a20.551,20.551,0,0,0,3.83,11.028,29.2,29.2,0,0,0,3.519,4.266c1.656,1.679,3.335,3.338,5,5.007-1.809,2.634-1.032,4.814.854,6.778,1.955,2.036,3.755,2.277,6.41,1.508a.058.058,0,0,1,.063.022c1.9,2.85,3.657,4.23,5.549,4.383.787.762,1.562,1.535,2.353,2.295a7.35,7.35,0,0,0,8.729,1.148,4.964,4.964,0,0,0,2.05-2.266c4.774,4.005,7.956,4.079,11.707-1.539a.054.054,0,0,1,.063-.025c2.652.769,4.455.528,6.41-1.508,1.991-2.074,2.751-4.389.524-7.23-.016-.02-.591-.769-.562-.766a4.468,4.468,0,0,0,3.538-1.859c1.845-2.387,1.733-4.893-.247-7.363.865-.87,1.742-1.73,2.6-2.6a29.088,29.088,0,0,0,3.52-4.268,20.559,20.559,0,0,0,3.832-11.028l8.035-8.037Zm-47.945,45.475A19.559,19.559,0,0,1,425.84,515a15.177,15.177,0,0,1-.375-2.216,15.988,15.988,0,0,1-.058-1.9l-8.149-8.152,17.521-17.524,5.619,5.619.371.369-.025.061,2.715.225.178-.438c1.07-.73,5.513-3.194,11.444,1.326l7.848,7.884a2.113,2.113,0,0,1-.009,2.973l-.517.517a2.106,2.106,0,0,1-2.976-.007l-8.028-8.066-1.951,1.364,2.171,2.544.942.946q-1.386,1.382-2.769,2.769a1.579,1.579,0,0,0-.425.73c-.045.047-.09.1-.137.144-5.394,5.4-10.808,10.79-16.188,16.2A8.334,8.334,0,0,0,430.908,523.646ZM456.93,545.51a2.684,2.684,0,0,1-2.189.879,4.684,4.684,0,0,1-2.791-1.69c-.38-.375-.755-.753-1.135-1.128a17.072,17.072,0,0,0,2.841-1.989,5,5,0,0,0,2.05,2.266,7.208,7.208,0,0,0,1.713.7A2.018,2.018,0,0,1,456.93,545.51Zm11.565-1.085c-1.2,1.416-2.58,1.539-4.34-.092-.272-.254-.539-.512-.811-.766a7.546,7.546,0,0,0,1.092-.868c1.009-.971,2-1.958,3.007-2.933l.319.319C469.419,541.745,469.637,543.085,468.5,544.424Zm8.385-4.385c-1.216,1.661-3.074,1.7-4.74.038-.827-.825-1.652-1.654-2.479-2.479,1.364-1.333,2.733-2.657,4.093-4q1.15,1.153,2.306,2.3C477.539,537.392,477.791,538.8,476.88,540.039Zm3.4-9.826a2.8,2.8,0,0,1-3.913,1.474,4.541,4.541,0,0,1-.414-.261c1.315-1.3,2.616-2.616,3.922-3.924A2.547,2.547,0,0,1,480.276,530.213Zm8.606-23.344a15.127,15.127,0,0,1-.061,1.9,14.662,14.662,0,0,1-.375,2.216,19.579,19.579,0,0,1-5.1,8.68c-3.331,3.5-6.819,6.855-10.237,10.271-3.585,3.587-7.158,7.19-10.772,10.747a4.69,4.69,0,0,1-2.794,1.69,2.683,2.683,0,0,1-2.187-.879,3.213,3.213,0,0,1-.521-2.69,6.169,6.169,0,0,1,1.726-2.429c1.636-1.672,3.3-3.317,4.953-4.974.8-.807,1.6-1.616,2.4-2.436.843-.872,3.308-2.708,1.926-4.005-1.27-1.189-3.088,1.1-3.85,1.872-.8.809-1.611,1.616-2.427,2.411-3.8,3.706-7.54,7.466-11.428,11.071-1.76,1.632-3.137,1.508-4.342.094-1.139-1.34-.921-2.681.735-4.34q6.449-6.463,12.909-12.914a3.061,3.061,0,0,0,1.234-1.922c.083-.683-.166-1.288-.868-1.393a2.507,2.507,0,0,0-2.459,1.034q-7.6,7.6-15.2,15.188c-1.665,1.659-3.526,1.623-4.742-.038-.908-1.243-.656-2.647.825-4.133q7.7-7.737,15.445-15.442c.841-.836,1.5-1.775.47-2.742-.984-.921-1.834-.106-2.587.65q-5.937,5.964-11.9,11.9a8.125,8.125,0,0,1-1.731,1.418,2.8,2.8,0,0,1-3.913-1.474c-.636-1.584.18-2.589,1.185-3.591q9.874-9.841,19.69-19.737l2.695,2.708a4.715,4.715,0,0,0,6.655.016l.517-.515a4.68,4.68,0,0,0,.16-6.479l-5.978-6.039h0l-1.173-1.18,1.6-1.6a11.182,11.182,0,0,1,12.766-1.193l1.769-1.767,5.616-5.619,17.524,17.524Z" transform="translate(0 0)" fill="#54a9be"/>
  </g>
</svg>
