<svg xmlns="http://www.w3.org/2000/svg" width="71.002" height="79.647" viewBox="0 0 71.002 79.647">
  <g id="Group_173" data-name="Group 173" transform="translate(-418.794 -543.181)">
    <path id="Path_102" data-name="Path 102" d="M467.794,579.993a21.025,21.025,0,0,0,5.753-1.566,31.125,31.125,0,0,0,9.7-6.565c5.209-5.2,9.123-13.645,4.486-21.739-1.981-3.462-5.5-4.195-8.316-4.312a6.26,6.26,0,0,0-5.172-2.631H434.158a6.262,6.262,0,0,0-5.174,2.638c-2.785.141-6.188.923-8.126,4.3-4.637,8.094-.723,16.537,4.486,21.739a31.1,31.1,0,0,0,9.7,6.565,20.817,20.817,0,0,0,5.7,1.559,3.119,3.119,0,0,1,1.515,4.153c-1.148,3.369-4.515,4.527-7.715,3.42-1.82-.633-2.6,2.255-.794,2.878a8.736,8.736,0,0,0,11.553-6.044,7,7,0,0,0,.161-.789L451.5,594.96v4.055c0,.061.007.117.007.178v6.555c-10.014.452-19.757,3.4-19.757,8.507,0,5.57,11.565,8.573,22.449,8.573s22.447-3,22.447-8.573c0-5.118-9.787-8.067-19.828-8.509v-4.163a4.615,4.615,0,0,1,.078-.821v-5.8l6.159-11.573a7.138,7.138,0,0,0,.183,1.007,8.737,8.737,0,0,0,11.556,6.044c1.805-.623,1.031-3.511-.794-2.878-3.2,1.107-6.565-.046-7.718-3.42A3.126,3.126,0,0,1,467.794,579.993Zm-26.542-3.152c-.3-.034-.584-.085-.875-.137a9.834,9.834,0,0,0-1.239-.257,18.928,18.928,0,0,1-2.849-.953,27.872,27.872,0,0,1-8.7-5.888c-4.373-4.368-7.713-11.363-3.972-17.9a5.332,5.332,0,0,1,4.231-2.553l14.092,27.7C441.619,576.854,441.372,576.852,441.253,576.842Zm19.894,31.645c.45.056.892.115,1.322.181.694.1,1.354.225,1.991.352.811.161,1.571.342,2.289.533q1.253.337,2.309.721c.581.208,1.131.423,1.62.65l.01,0c.413.191.777.384,1.119.581,1.593.914,2.455,1.888,2.455,2.746,0,2.582-7.632,6.184-20.058,6.184s-20.06-3.6-20.06-6.184c0-2.387,6.545-5.641,17.368-6.113v3.5a2.48,2.48,0,0,0,.782,1.8,2.857,2.857,0,0,0,4.268-.581,2.4,2.4,0,0,0,.261-.655v-4.07C458.352,608.2,459.8,608.321,461.147,608.487Zm2.389-32.891-8.206,15.421a2.968,2.968,0,0,0-1.129-.217,3.017,3.017,0,0,0-1.129.215l-10.818-20.329-10.816-20.331a2.516,2.516,0,0,1-.305-1.258c0-.032.012-.066.017-.1.01-.068.02-.132.029-.2l.007-.049c.015-.081.041-.161.061-.247.017-.066.029-.132.051-.2a2.24,2.24,0,0,1,.205-.45,2.877,2.877,0,0,1,1.109-1.055,3.308,3.308,0,0,1,.865-.308c.044-.007.088-.017.134-.024a3.644,3.644,0,0,1,.545-.049h40.086l.019,0h.007a3.734,3.734,0,0,1,.53.049c.046.007.093.017.137.027a2.886,2.886,0,0,1,.484.137l.015,0h0a2.938,2.938,0,0,1,1.219.875c.044.054.081.115.122.169s.086.112.122.173a2.488,2.488,0,0,1,.344,1.148,3,3,0,0,1-.278,1.351Zm2.949,1.253,14-27.521c0-.073-.007-.144-.007-.22,2.052.261,3.56.977,4.488,2.6,3.743,6.535.4,13.532-3.973,17.9A27.861,27.861,0,0,1,472.3,575.5a18.757,18.757,0,0,1-2.722.923,9.847,9.847,0,0,0-1.5.31c-.237.039-.474.083-.713.11C467.22,576.852,466.9,576.854,466.485,576.849Z" transform="translate(0)" fill="#54a9be"/>
  </g>
</svg>
