<svg xmlns="http://www.w3.org/2000/svg" width="342.931" height="89.619" viewBox="0 0 342.931 89.619"><defs><style>.a{fill:#fff;}</style></defs><g transform="translate(-2112.743 -591.972)"><path class="a" d="M2193.4,634.815v-18.2l-40.328-24.645-13.372,8.171,6.446,3.938,6.927-4.232,11.222,6.858-11.222,6.858-17.668-10.8-22.661,13.848v14.856l6.721-4.107v-6.979l14.563-8.9v12.23l-21.284,13.007v20.222l16.8,10.269v-7.877l-10.082-6.161V638.7l14.563,8.408v22.849l19.045,11.638,40.328-24.645V639.99l-6.721,3.881v9.305l-14.564,8.9V647.1Zm-21.285-23.329,14.564,8.9v12.23l-14.564-8.9Zm-31.366,2.425,12.323,7.531,12.322-7.531v11.2l-12.322,7.115-12.323-7.115Zm-13.242,21.666,8.708-5.321,13.5,7.792v14.78l-8.962,5.477V643.224Zm25.565,38.135-12.323-7.531,12.323-7.531,12.322,7.531Zm12.322-30.49v15.083l-8.961-5.477V638.05l13.5-7.792,8.707,5.321Z" transform="translate(0 0)"/><path class="a" d="M2177.346,720.859l6.287,3.842,40.329-24.645V683.1l-6.722,3.881v9.305Z" transform="translate(-30.562 -43.111)"/><path class="a" d="M2129.547,710.553v7.877l-16.8-10.269v-7.928Z" transform="translate(0 -51.216)"/><path class="a" d="M2177.274,591.972l-13.371,8.171,6.445,3.939,6.926-4.233,33.607,20.538,6.721-3.77Z" transform="translate(-24.203)"/><path class="a" d="M2212.665,682.373l6.721,3.881,13.235-7.641-6.715-3.884Z" transform="translate(-47.27 -39.15)"/><path class="a" d="M2147.976,682.373v15.083l-6.721,3.77V686.254l-13.236-7.641,6.715-3.884Z" transform="translate(-7.227 -39.15)"/><path class="a" d="M2219.386,708.089V693.118l-6.721-3.88V704.32Z" transform="translate(-47.27 -46.014)"/><path class="a" d="M2134.734,674.728l-6.715,3.884,13.236,7.641v14.971l6.721-3.77V682.373Z" transform="translate(-7.227 -39.15)"/><path class="a" d="M2343.337,632.657a17.1,17.1,0,0,1-1.236,6.575,15.5,15.5,0,0,1-8.583,8.606,17.543,17.543,0,0,1-12.93,0,15.508,15.508,0,0,1-8.584-8.606,18.115,18.115,0,0,1,0-13.15,15.507,15.507,0,0,1,8.584-8.606,17.53,17.53,0,0,1,12.93,0,15.5,15.5,0,0,1,8.583,8.606A17.094,17.094,0,0,1,2343.337,632.657Zm-3.354.022a15.339,15.339,0,0,0-.883-5.2,13,13,0,0,0-2.56-4.339,12.251,12.251,0,0,0-4.082-2.974,13.815,13.815,0,0,0-10.812,0,12.238,12.238,0,0,0-4.083,2.974,12.975,12.975,0,0,0-2.559,4.339,15.751,15.751,0,0,0,0,10.4,12.726,12.726,0,0,0,2.559,4.318,12.4,12.4,0,0,0,4.083,2.953,13.824,13.824,0,0,0,10.812,0,12.41,12.41,0,0,0,4.082-2.953,12.752,12.752,0,0,0,2.56-4.318A15.324,15.324,0,0,0,2339.984,632.679Z" transform="translate(-93.681 -11.481)"/><path class="a" d="M2432.033,622.065a7.634,7.634,0,0,0-2.6-2.272,7.958,7.958,0,0,0-3.84-.86,8.206,8.206,0,0,0-2.339.353,6.807,6.807,0,0,0-2.162,1.081,5.549,5.549,0,0,0-1.566,1.831,5.393,5.393,0,0,0-.6,2.6,4.814,4.814,0,0,0,.572,2.472,5.425,5.425,0,0,0,1.519,1.655,8.758,8.758,0,0,0,2.156,1.125q1.211.443,2.531.883,1.628.53,3.278,1.148a11.8,11.8,0,0,1,2.971,1.611,7.788,7.788,0,0,1,2.157,2.516,7.97,7.97,0,0,1,.836,3.861,8.584,8.584,0,0,1-.892,4.039,8.475,8.475,0,0,1-2.316,2.8,9.614,9.614,0,0,1-3.257,1.632,13.2,13.2,0,0,1-3.684.53,14.1,14.1,0,0,1-2.824-.287,12.792,12.792,0,0,1-2.692-.86,10.9,10.9,0,0,1-2.383-1.456,10.529,10.529,0,0,1-1.942-2.03l2.735-2.03a8.4,8.4,0,0,0,2.847,2.8,8.054,8.054,0,0,0,4.3,1.125,8.347,8.347,0,0,0,2.427-.375,6.818,6.818,0,0,0,2.228-1.148,6.351,6.351,0,0,0,1.633-1.9,5.893,5.893,0,0,0,0-5.34,5.7,5.7,0,0,0-1.7-1.809,10.374,10.374,0,0,0-2.428-1.214q-1.368-.485-2.868-.971-1.544-.484-3.045-1.1a10.265,10.265,0,0,1-2.691-1.611,7.508,7.508,0,0,1-1.92-2.449,8.947,8.947,0,0,1,.177-7.458,8.181,8.181,0,0,1,2.361-2.692,9.88,9.88,0,0,1,3.221-1.544,13.11,13.11,0,0,1,3.486-.486,12.023,12.023,0,0,1,5.428,1.126,9.312,9.312,0,0,1,3.4,2.669Z" transform="translate(-142.968 -11.481)"/><path class="a" d="M2512.768,622.065a7.639,7.639,0,0,0-2.6-2.272,7.962,7.962,0,0,0-3.84-.86,8.2,8.2,0,0,0-2.339.353,6.807,6.807,0,0,0-2.162,1.081,5.554,5.554,0,0,0-1.567,1.831,5.4,5.4,0,0,0-.6,2.6,4.824,4.824,0,0,0,.571,2.472,5.432,5.432,0,0,0,1.519,1.655,8.758,8.758,0,0,0,2.157,1.125q1.21.443,2.531.883,1.628.53,3.278,1.148a11.8,11.8,0,0,1,2.97,1.611,7.79,7.79,0,0,1,2.157,2.516,7.967,7.967,0,0,1,.836,3.861,8.587,8.587,0,0,1-.892,4.039,8.468,8.468,0,0,1-2.317,2.8,9.6,9.6,0,0,1-3.257,1.632,13.2,13.2,0,0,1-3.684.53,14.1,14.1,0,0,1-2.824-.287,12.776,12.776,0,0,1-2.692-.86,10.909,10.909,0,0,1-2.383-1.456,10.561,10.561,0,0,1-1.943-2.03l2.736-2.03a8.386,8.386,0,0,0,2.846,2.8,8.056,8.056,0,0,0,4.3,1.125,8.339,8.339,0,0,0,2.427-.375,6.8,6.8,0,0,0,2.228-1.148,6.341,6.341,0,0,0,1.634-1.9,5.895,5.895,0,0,0,0-5.34,5.707,5.707,0,0,0-1.7-1.809,10.378,10.378,0,0,0-2.428-1.214q-1.368-.485-2.868-.971-1.545-.484-3.045-1.1a10.27,10.27,0,0,1-2.692-1.611,7.515,7.515,0,0,1-1.919-2.449,8.948,8.948,0,0,1,.177-7.458,8.188,8.188,0,0,1,2.36-2.692,9.89,9.89,0,0,1,3.222-1.544,13.109,13.109,0,0,1,3.487-.486,12.022,12.022,0,0,1,5.428,1.126,9.319,9.319,0,0,1,3.4,2.669Z" transform="translate(-181.161 -11.481)"/><path class="a" d="M2583.286,648.993h-3.177V617.749h3.177Z" transform="translate(-221.098 -12.195)"/><path class="a" d="M2635.385,617.749h8.827a17.113,17.113,0,0,1,4.324.507,9.546,9.546,0,0,1,3.333,1.544,6.964,6.964,0,0,1,2.14,2.6,8.457,8.457,0,0,1,.75,3.685,8.227,8.227,0,0,1-.773,3.685,7.144,7.144,0,0,1-2.162,2.6,9.832,9.832,0,0,1-3.353,1.566,16.716,16.716,0,0,1-4.348.529h-5.56v14.519h-3.177Zm3.177,14.033h5.383a9.4,9.4,0,0,0,5.694-1.456,4.969,4.969,0,0,0,1.941-4.237,4.758,4.758,0,0,0-2.008-4.259,10.039,10.039,0,0,0-5.627-1.346h-5.383Z" transform="translate(-247.248 -12.195)"/><path class="a" d="M2708.883,648.993H2705.4l13.5-31.244h3.09l13.416,31.244h-3.531l-3.442-8.208h-16.152Zm4.589-11.121h13.769l-6.885-16.593Z" transform="translate(-280.368 -12.195)"/><g transform="translate(2216.914 651.691)"><path class="a" d="M2544.018,716.744h0a1.721,1.721,0,0,0,0-2.459,2.382,2.382,0,0,0-1.544-.436H2540.7v3.336h1.775A2.365,2.365,0,0,0,2544.018,716.744Z" transform="translate(-2419.368 -709.348)"/><path class="a" d="M2689.441,717.853h3.048l-1.525-3.412Z" transform="translate(-2489.735 -709.628)"/><path class="a" d="M2372.7,714.138a3.144,3.144,0,0,0-2.948,0,2.693,2.693,0,0,0-1.035,1.016,3,3,0,0,0,0,2.908,2.687,2.687,0,0,0,1.035,1.015,3.006,3.006,0,0,0,1.478.368,2.972,2.972,0,0,0,1.471-.367h0a2.662,2.662,0,0,0,1.025-1.015,3.04,3.04,0,0,0,0-2.909A2.67,2.67,0,0,0,2372.7,714.138Z" transform="translate(-2337.83 -709.311)"/><path class="a" d="M2310.439,705.307v14.929H2549.2V705.307Zm36.762,9.224a3.6,3.6,0,0,1-1.391,1.347,4.258,4.258,0,0,1-3.958,0,3.6,3.6,0,0,1-1.4-1.349,3.927,3.927,0,0,1,0-3.841,3.6,3.6,0,0,1,1.4-1.347,4.259,4.259,0,0,1,3.958,0,3.613,3.613,0,0,1,1.39,1.347,3.911,3.911,0,0,1,0,3.853Zm2.957,1.77h-1v-7.395h1Zm7.085,0h-5.005v-7.395h1V715.4h4Zm29.582.023h-1.01v-7.448h1.01Zm27.281-.023h-5.3v-7.395h5.149v.9h-4.146v2.3h3.7v.891h-3.7V715.4h4.3Zm7.749,0h-.806l-4.411-5.568V716.3h-1v-7.395h.807l.037.047,4.384,5.521v-5.568h.993Zm7.382,0h-5.3v-7.395h5.148v.9h-4.145v2.3h3.7v.891h-3.7V715.4h4.3Zm6.469,0-1.628-2.29c-.168.016-.34.024-.513.024h-1.8V716.3h-1v-7.395h2.8a3.357,3.357,0,0,1,2.223.683,2.349,2.349,0,0,1,.821,1.891,2.449,2.449,0,0,1-.448,1.487,2.41,2.41,0,0,1-1.113.821l1.789,2.512Zm3.183-2.248a2.758,2.758,0,0,0,1.045,1.015,3.28,3.28,0,0,0,3.247-.119v-2.47h.973v2.906l-.042.037a3.647,3.647,0,0,1-1.227.7,4.529,4.529,0,0,1-1.48.242,4.084,4.084,0,0,1-1.989-.485,3.6,3.6,0,0,1-1.4-1.347,3.913,3.913,0,0,1,0-3.853,3.609,3.609,0,0,1,1.4-1.347,4.108,4.108,0,0,1,2-.485,4.345,4.345,0,0,1,1.545.268,3.115,3.115,0,0,1,1.2.8l.079.086-.638.652-.089-.088a2.836,2.836,0,0,0-2.068-.8,3.112,3.112,0,0,0-1.508.368,2.709,2.709,0,0,0-1.05,1.016,2.953,2.953,0,0,0,0,2.9Zm9.849-.312v2.56h-.993v-2.56l-2.956-4.835h1.1l.036.06,2.345,3.839,2.381-3.9h1.046Zm24.636,2.583h-1.009v-7.448h1.009Zm28.529-2.271a2.764,2.764,0,0,0,1.047,1.015,3.279,3.279,0,0,0,3.246-.119v-2.47h.974v2.906l-.042.037a3.63,3.63,0,0,1-1.227.7,4.523,4.523,0,0,1-1.479.242,4.091,4.091,0,0,1-1.99-.485,3.59,3.59,0,0,1-1.394-1.347,3.907,3.907,0,0,1,0-3.853,3.59,3.59,0,0,1,1.394-1.347,4.11,4.11,0,0,1,2-.485,4.344,4.344,0,0,1,1.545.268,3.11,3.11,0,0,1,1.2.8l.08.086-.639.652-.089-.088a2.834,2.834,0,0,0-2.067-.8,3.1,3.1,0,0,0-1.507.368,2.707,2.707,0,0,0-1.051,1.016,2.954,2.954,0,0,0,0,2.9Zm12.535,2.248-.857-1.909h-3.821l-.857,1.909h-1.06l3.382-7.395h.9l.033.072,3.348,7.323Zm6.51-.959a2.085,2.085,0,0,1-.947.75,3.863,3.863,0,0,1-1.531.271,4.722,4.722,0,0,1-1.567-.263,2.933,2.933,0,0,1-1.177-.706l-.06-.063.412-.811.121.121a2.726,2.726,0,0,0,.987.6,3.659,3.659,0,0,0,1.284.232,2.323,2.323,0,0,0,1.366-.328.958.958,0,0,0,.429-.814.788.788,0,0,0-.223-.595,1.672,1.672,0,0,0-.594-.366,10.3,10.3,0,0,0-1.038-.3,11.183,11.183,0,0,1-1.3-.4,2.255,2.255,0,0,1-.87-.61,1.658,1.658,0,0,1-.372-1.133,1.917,1.917,0,0,1,.306-1.053,2.092,2.092,0,0,1,.932-.756,3.737,3.737,0,0,1,1.521-.276,4.459,4.459,0,0,1,1.235.173,3.589,3.589,0,0,1,1.052.481l.083.057-.353.832-.124-.081a3.41,3.41,0,0,0-.926-.428,3.482,3.482,0,0,0-.967-.143,2.211,2.211,0,0,0-1.339.336,1,1,0,0,0-.425.837.806.806,0,0,0,.223.6,1.6,1.6,0,0,0,.607.37c.26.091.613.191,1.045.3a10.421,10.421,0,0,1,1.286.388,2.213,2.213,0,0,1,.87.6,1.641,1.641,0,0,1,.368,1.118A1.892,1.892,0,0,1,2520.947,715.342Z" transform="translate(-2310.439 -705.307)"/></g></g></svg>